<?xml version="1.0" encoding="utf-8"?>
<!-- Generator: Adobe Illustrator 28.3.0, SVG Export Plug-In . SVG Version: 6.00 Build 0)  -->
<svg version="1.1" id="Camada_1" xmlns="http://www.w3.org/2000/svg" xmlns:xlink="http://www.w3.org/1999/xlink" x="0px" y="0px"
	 viewBox="0 0 47 47" style="enable-background:new 0 0 47 47;" xml:space="preserve">
<path d="M46.9,31.9c-0.1-0.6-0.3-1.2-0.7-1.7c-0.4-0.5-0.9-0.9-1.5-1.1c-0.6-0.2-1.2-0.3-1.8-0.2c-3.8,0.8-7.8,0.6-11.5-0.7
	c-4.8-1.7-8.9-5-11.4-9.5c-2.5-4.4-3.4-9.6-2.5-14.6c0.1-0.6,0.1-1.4-0.1-2c-0.2-0.6-0.6-1.1-1.2-1.4c-0.5-0.4-1.1-0.6-1.7-0.6
	c-0.6,0-1.3,0.1-1.8,0.4C9.5,2.3,6.7,4.8,4.5,7.9C2.4,10.9,1,14.4,0.4,18.1c-1,6.5,0.5,13.1,4.3,18.5c3.8,5.3,9.6,8.9,16.1,10
	c1.3,0.2,2.7,0.3,4,0.3c4.5,0,8.9-1.2,12.7-3.6c3.8-2.3,7-5.7,9.1-9.6C46.9,33.2,47,32.5,46.9,31.9z"/>
</svg>
