<svg width="48" height="47" viewBox="0 0 48 47" fill="none" xmlns="http://www.w3.org/2000/svg">
<path d="M44.1768 1.51477H3.06912V45.4004H44.1768V1.51477Z" fill="white"/>
<path d="M42.7508 10.189C42.5892 10.189 42.4276 10.0274 42.4276 9.86587C42.4276 8.25046 39.5187 5.66578 35.8017 5.66578H31.7616L24.0044 11.4813L16.2472 5.66578H12.2071C8.3285 5.66578 5.58119 8.25046 5.58119 9.86587C5.58119 10.0274 5.41953 10.189 5.25794 10.189C5.09633 10.189 4.93473 10.0274 4.93473 9.86587C4.93473 7.60429 8.32849 4.85807 12.3687 4.85807H16.2472L17.2169 3.88878C17.3785 3.72724 17.5401 3.72724 17.7017 3.88878L24.0044 11.3198L30.3071 3.88878C30.4687 3.72724 30.6303 3.72724 30.7919 3.88878L31.7616 4.85807H35.6401C39.6803 4.85807 43.0741 7.60429 43.0741 9.86587C43.0741 10.0274 42.9124 10.189 42.7508 10.189ZM37.9026 26.9894C37.741 28.1202 37.5794 28.6048 37.4178 28.6048C37.4178 28.7663 37.2562 28.7663 37.0946 28.7663C36.933 28.7663 36.933 28.6048 36.933 28.4433C36.933 28.4433 37.0946 27.9586 37.2562 26.9894C37.4178 26.0201 36.933 25.2124 36.933 25.2124C36.933 25.0509 36.933 24.8893 37.0946 24.8893H37.4178V25.0509C37.4178 25.0509 37.9026 26.0201 37.741 27.1509L37.9026 26.9894ZM36.2865 28.2817C36.2865 28.4433 36.1249 28.4433 35.9633 28.4433C35.8017 28.4433 35.8017 28.2817 35.8017 28.1202C35.8017 28.1202 35.9633 27.6355 35.9633 26.6663C35.9633 25.697 35.4785 24.8894 35.4785 24.8894C35.4785 24.7278 35.4785 24.5663 35.6401 24.5663H35.9633C35.9633 24.5663 36.4481 25.5355 36.4481 26.6663C36.4481 27.7971 36.2866 28.2817 36.1249 28.2817L36.2865 28.2817ZM35.1553 27.6356C34.6705 29.5741 33.8624 31.1895 33.7008 31.8356C33.3776 32.4818 33.216 33.2896 33.3776 35.3896C33.3776 37.4897 33.3776 38.9435 33.216 39.4281C33.216 39.7512 32.8928 39.9128 32.5696 39.9128C32.2463 39.9128 32.0847 39.7512 31.9232 39.2666C31.7615 38.4589 31.4383 35.0665 31.4383 34.5819C31.4383 34.2588 31.1151 33.9357 30.9535 33.9357C30.7919 33.9357 30.6303 34.0972 30.4687 34.7434C30.1455 36.1973 29.6607 39.7512 29.499 40.559C29.3374 41.3667 29.0142 41.5282 28.8526 41.5282H28.691C28.5293 41.5282 28.0446 41.5282 28.0446 40.882C28.0446 40.0743 28.691 35.228 28.691 34.7434C28.691 34.4203 28.691 34.2588 28.5294 34.2588C28.3678 34.2588 28.3678 34.4203 28.2062 34.5819C27.7213 35.228 25.4588 39.2666 24.8124 40.559C24.6508 40.882 24.4892 40.882 24.166 40.882C24.0044 40.882 23.8428 40.882 23.6812 40.7205C23.5196 40.5589 23.1963 40.0743 23.358 39.7512C23.5196 39.4281 25.7821 34.2588 26.1053 33.6126C26.2669 33.128 26.2669 32.8049 25.9436 32.8049C25.782 32.8049 25.6204 32.9664 25.2972 33.128C24.4892 33.9357 21.4187 37.1665 20.9338 37.4896C20.7722 37.6511 20.6106 37.8127 20.449 37.8127C20.2874 37.8127 20.1258 37.6511 19.9642 37.4896C19.641 37.1665 19.641 36.8434 19.8026 36.5203C20.1258 36.1973 24.0044 31.1895 24.6508 29.8971C25.2972 28.7663 26.2668 26.8278 24.3275 26.8278H24.0044C23.1963 26.8278 22.7115 26.9894 22.2267 26.9894C21.4186 26.9894 21.0954 26.8278 20.9338 26.8278C20.6106 26.6663 19.9642 26.3432 20.1258 25.8585C20.2874 25.5355 21.257 25.697 21.7419 25.5355L22.0651 25.3739C22.0651 25.3739 23.8427 24.8893 24.974 24.2431C26.1052 23.597 28.6909 22.4662 29.3374 22.4662C29.6606 22.4662 29.9838 22.3046 30.307 22.3046C30.7919 22.3046 31.2767 22.3046 31.4383 22.4662C31.9231 22.6277 32.4079 23.92 34.6704 24.8893C34.6704 24.8893 35.6401 25.8586 35.1552 27.7971L35.1553 27.6356ZM16.2472 31.1895C15.6008 29.251 15.2776 27.474 15.2776 26.8278C15.116 26.1817 14.7928 25.374 13.6615 23.7585C12.5303 22.1431 11.7222 20.8508 11.5606 20.3661C11.399 20.0431 11.7223 19.5584 12.2071 19.5584C12.3687 19.5584 12.5303 19.5584 12.6919 19.8815C13.3383 20.5277 15.4392 23.1124 15.7624 23.4355C15.924 23.597 16.2473 23.7585 16.4088 23.7585C16.7321 23.7585 16.7321 23.597 16.5704 22.7893C16.0856 21.3354 14.4696 18.1045 14.1464 17.4584C13.6616 16.3276 14.308 16.3276 14.308 16.3276C14.308 16.3276 14.4696 16.166 14.6312 16.166C14.7928 16.166 14.9544 16.166 15.116 16.4891C15.4392 17.1353 17.7017 21.6585 18.0249 21.9816C18.1865 22.1431 18.3482 22.3046 18.5098 22.3046C18.6714 22.3046 18.6714 22.1431 18.6714 21.82C18.6714 21.0123 18.3482 16.4891 18.1866 15.0352C18.1866 14.5506 18.6714 14.2275 18.9946 14.2275C19.3178 14.2275 19.641 14.5506 19.8026 14.8737C19.9643 15.1968 20.7723 20.8508 20.9339 21.6585C20.9339 21.9815 21.2571 22.3046 21.4187 22.3046C21.5803 22.3046 21.7419 22.1431 21.9035 21.6585C22.0651 20.5277 23.0348 16.166 23.0348 15.6814C23.0348 15.1968 23.358 15.0352 23.6812 15.0352H23.8428C24.1661 15.0352 24.4893 15.3583 24.4893 15.8429C24.4893 16.3276 24.0044 21.82 24.166 23.597C23.358 23.9201 22.55 24.2432 22.0652 24.2432L21.7419 24.4047H21.4187C20.7723 24.4047 19.8026 24.4047 19.3178 25.374C19.1562 25.8586 18.9946 26.3432 19.1562 26.6663C19.4794 27.474 20.4491 27.9586 20.6107 28.1202C20.9339 28.2817 21.4187 28.4433 22.3884 28.4433C22.8732 28.4433 23.358 28.4433 24.166 28.2817L23.6812 29.251L23.5196 29.4125C23.1964 29.8971 22.2267 31.351 20.6106 33.4511H19.8026C19.3178 33.4511 18.833 33.4511 18.3482 33.6126C18.3482 33.6126 17.0553 33.4511 16.2473 31.5126L16.2472 31.1895ZM17.5401 34.7434C17.5401 34.905 17.3785 34.905 17.2169 34.905H17.0553C17.0553 34.905 16.0856 34.5819 15.4392 33.6126C14.7928 32.6434 14.6312 32.1588 14.6312 32.1588C14.6312 31.9972 14.6312 31.8357 14.7928 31.8357C14.9544 31.8357 15.116 31.8357 15.116 31.9972C15.116 31.9972 15.2776 32.4819 15.7624 33.2896C16.4089 34.0973 17.2169 34.4204 17.2169 34.4204C17.3785 34.4204 17.3785 34.5819 17.3785 34.7435L17.5401 34.7434ZM16.0856 35.3896C16.0856 35.5512 15.924 35.5512 15.924 35.5512H15.7624C15.7624 35.5512 14.7927 35.0665 14.3079 34.0973C13.6615 33.128 13.6615 32.6434 13.6615 32.4819C13.6615 32.3203 13.8231 32.1588 13.8231 32.1588C13.9847 32.1588 14.1464 32.3203 14.1464 32.3203C14.1464 32.3203 14.1464 32.805 14.7928 33.6127C15.2776 34.4204 16.0856 34.905 16.0856 34.905C16.2473 34.905 16.2473 35.0665 16.2473 35.2281L16.0856 35.3896ZM0.247742 0.0475089L0.250833 44.5511C0.250922 45.8461 1.29135 46.8955 2.58634 46.8945C15.821 46.8851 37.6763 46.9015 44.8126 46.9075C46.1075 46.9085 47.1452 45.8666 47.1451 44.5716C47.1447 36.7662 47.1422 11.4553 47.1264 0.0463257" fill="#1C4F9C"/>
</svg>
