<svg width="51" height="51" viewBox="0 0 51 51" fill="none" xmlns="http://www.w3.org/2000/svg">
<path d="M10.3206 25.4779H1.8M48.6632 25.4779H40.1426M14.6874 14.9337L8.66333 8.90964M41.7998 42.0462L35.7758 36.0221M14.6874 36.0221L8.66333 42.0462M41.7998 8.90964L35.7758 14.9337" stroke="black" stroke-width="3.19522" stroke-miterlimit="10" stroke-linecap="round"/>
<path d="M25.2316 33.9985C27.4914 33.9985 29.6586 33.1008 31.2565 31.5029C32.8545 29.9049 33.7522 27.7377 33.7522 25.4779C33.7522 23.2181 32.8545 21.0509 31.2565 19.453C29.6586 17.855 27.4914 16.9573 25.2316 16.9573C22.9718 16.9573 20.8045 17.855 19.2066 19.453C17.6087 21.0509 16.711 23.2181 16.711 25.4779C16.711 27.7377 17.6087 29.9049 19.2066 31.5029C20.8045 33.1008 22.9718 33.9985 25.2316 33.9985Z" stroke="black" stroke-width="3.19522" stroke-miterlimit="10"/>
<path d="M25.2316 40.3889V48.9095M25.2316 2.04633V10.5669" stroke="black" stroke-width="3.19522" stroke-miterlimit="10" stroke-linecap="round"/>
</svg>
